# The Great Editor v0.0.1
mtllib floor_1.mtl
o floor_1
v 0.14019451394498186 -0.12661925307170485 0
v 0.14019451394498186 -0.12661925307170485 -0.1
v 1.9499963881610485 -0.11419190028697701 0
v 1.9499963881610485 -0.11419190028697701 -0.1
v 1.9686623718618046 -1.26474516834453 0
v 1.9686623718618046 -1.26474516834453 -0.1
v 3.2623048786093762 -1.2709837992605582 0
v 3.2623048786093762 -1.2709837992605582 -0.1
v 3.24982761677732 -1.0284258292453885 0
v 3.24982761677732 -1.0284258292453885 -0.1
v 2.1863656363075186 -1.0346145511140883 0
v 2.1863656363075186 -1.0346145511140883 -0.1
v 2.1925543581762184 -0.12661925307170485 0
v 2.1925543581762184 -0.12661925307170485 -0.1
v 3.977501526822829 -0.12038062215567683 0
v 3.977501526822829 -0.12038062215567683 -0.1
v 3.977501526822829 -1.3020771357460417 0
v 3.977501526822829 -1.3020771357460417 -0.1
v 5.264905402654373 -1.2709837992605582 0
v 5.264905402654373 -1.2709837992605582 -0.1
v 5.258666771738345 -1.065707887599572 0
v 5.258666771738345 -1.065707887599572 -0.1
v 4.207632144053271 -1.065707887599572 0
v 4.207632144053271 -1.065707887599572 -0.1
v 4.226298127754028 -0.15147395864116053 0
v 4.226298127754028 -0.15147395864116053 -0.1
v 5.973913328999126 -0.15771258955718856 0
v 5.973913328999126 -0.15771258955718856 -0.1
v 5.917915377896859 -1.277172521129258 0
v 5.917915377896859 -1.277172521129258 -0.1
v 6.222660020882997 -1.26474516834453 0
v 6.222660020882997 -1.26474516834453 -0.1
v 6.216471299014296 -0.15147395864116053 0
v 6.216471299014296 -0.15147395864116053 -0.1
v 7.478970560229056 -0.15771258955718856 0
v 7.478970560229056 -0.15771258955718856 -0.1
v 7.51006389671454 -1.2523178155598023 0
v 7.51006389671454 -1.2523178155598023 -0.1
v 6.813533232201843 -1.2398904627750744 0
v 6.813533232201843 -1.2398904627750744 -0.1
v 6.8259605849865705 -1.476209801874216 0
v 6.8259605849865705 -1.476209801874216 -0.1
v 7.51006389671454 -1.488637154658944 0
v 7.51006389671454 -1.488637154658944 -0.1
v 7.516302527630568 -2.1789790973029413 0
v 7.516302527630568 -2.1789790973029413 -0.1
v 6.78862861758506 -2.1727903754342415 0
v 6.78862861758506 -2.1727903754342415 -0.1
v 6.813533232201843 -2.415298436402083 0
v 6.813533232201843 -2.415298436402083 -0.1
v 7.51006389671454 -2.4091097145333835 0
v 7.51006389671454 -2.4091097145333835 -0.1
v 7.472781838360357 -3.9017395929785854 0
v 7.472781838360357 -3.9017395929785854 -0.1
v 7.043613940384956 -3.9079782238946135 0
v 7.043613940384956 -3.9079782238946135 -0.1
v 7.06851855500174 -2.8008957360599434 0
v 7.06851855500174 -2.8008957360599434 -0.1
v 6.83214930685527 -2.7947070141912436 0
v 6.83214930685527 -2.7947070141912436 -0.1
v 6.83214930685527 -3.9141669457633133 0
v 6.83214930685527 -3.9141669457633133 -0.1
v 6.309751308470747 -3.9141669457633133 0
v 6.309751308470747 -3.9141669457633133 -0.1
v 6.3159899393867756 -2.8133729978919995 0
v 6.3159899393867756 -2.8133729978919995 -0.1
v 5.905488025112131 -2.8195617197606992 0
v 5.905488025112131 -2.8195617197606992 -0.1
v 5.936581361597614 -3.0932130262613526 0
v 5.936581361597614 -3.0932130262613526 -0.1
v 6.079620691240305 -3.087024304392653 0
v 6.079620691240305 -3.087024304392653 -0.1
v 6.098286674941061 -3.9328329294640687 0
v 6.098286674941061 -3.9328329294640687 -0.1
v 5.1280547948803825 -3.9265942985480407 0
v 5.1280547948803825 -3.9265942985480407 -0.1
v 5.090772736526199 -2.7884683832752155 0
v 5.090772736526199 -2.7884683832752155 -0.1
v 4.543470123524892 -2.7698023995744596 0
v 4.543470123524892 -2.7698023995744596 -0.1
v 4.5621361072256486 -3.1118790099621085 0
v 4.5621361072256486 -3.1118790099621085 -0.1
v 4.904162808565968 -3.0745470425605967 0
v 4.904162808565968 -3.0745470425605967 -0.1
v 4.897974086697269 -3.945260282248797 0
v 4.897974086697269 -3.945260282248797 -0.1
v 3.92155348476789 -3.9204055766793413 0
v 3.92155348476789 -3.9204055766793413 -0.1
v 3.9339808375526175 -2.1727903754342415 0
v 3.9339808375526175 -2.1727903754342415 -0.1
v 3.697661498453476 -2.1727903754342415 0
v 3.697661498453476 -2.1727903754342415 -0.1
v 3.716277573106904 -3.9265942985480407 0
v 3.716277573106904 -3.9265942985480407 -0.1
v 0.14019451394498186 -3.9265942985480407 0
v 0.14019451394498186 -3.9265942985480407 -0.1
v 0.12776716116025402 -2.3966823617486557 0
v 0.12776716116025402 -2.3966823617486557 -0.1
v 1.6950110653611512 -2.3966823617486557 0
v 1.6950110653611512 -2.3966823617486557 -0.1
v 1.6639177288756672 -2.197645081003697 0
v 1.6639177288756672 -2.197645081003697 -0.1
v 0.13395588302895384 -2.222499786573153 0
v 0.13395588302895384 -2.222499786573153 -0.1
v 0.12152853024422598 -1.2709837992605582 0
v 0.12152853024422598 -1.2709837992605582 -0.1
v 1.191279050677384 -1.2709837992605582 0
v 1.191279050677384 -1.2709837992605582 -0.1
v 1.178801788845328 -1.0719465185155999 0
v 1.178801788845328 -1.0719465185155999 -0.1
v 0.12776716116025402 -1.0719465185155999 0
v 0.12776716116025402 -1.0719465185155999 -0.1
v 1.9650618786847165 -1.0428142346241862 0
v 1.9650618786847165 -1.0428142346241862 -0.1
v 3.977501526822829 -1.0567501693425172 0
v 3.977501526822829 -1.0567501693425172 -0.1
v 3.9229248486426616 -3.727555466482564 0
v 3.9229248486426616 -3.727555466482564 -0.1
v 3.932169311961442 -2.4275388898944854 0
v 3.932169311961442 -2.4275388898944854 -0.1
v 6.312985346984822 -3.343527318031986 0
v 6.312985346984822 -3.343527318031986 -0.1
v 6.314957138619037 -2.9956086277580045 0
v 6.314957138619037 -2.9956086277580045 -0.1
v 5.100260071233187 -3.0780924537680576 0
v 5.100260071233187 -3.0780924537680576 -0.1
v 3.9328006021423363 -2.3387627574680026 0
v 3.9328006021423363 -2.3387627574680026 -0.1
vt 0.14019451394498186 -0.12661925307170485 0
vt 1.9499963881610485 -0.11419190028697701 0
vt 1.9686623718618046 -1.26474516834453 0
vt 3.2623048786093762 -1.2709837992605582 0
vt 3.24982761677732 -1.0284258292453885 0
vt 2.1863656363075186 -1.0346145511140883 0
vt 2.1925543581762184 -0.12661925307170485 0
vt 3.977501526822829 -0.12038062215567683 0
vt 3.977501526822829 -1.3020771357460417 0
vt 5.264905402654373 -1.2709837992605582 0
vt 5.258666771738345 -1.065707887599572 0
vt 4.207632144053271 -1.065707887599572 0
vt 4.226298127754028 -0.15147395864116053 0
vt 5.973913328999126 -0.15771258955718856 0
vt 5.917915377896859 -1.277172521129258 0
vt 6.222660020882997 -1.26474516834453 0
vt 6.216471299014296 -0.15147395864116053 0
vt 7.478970560229056 -0.15771258955718856 0
vt 7.51006389671454 -1.2523178155598023 0
vt 6.813533232201843 -1.2398904627750744 0
vt 6.8259605849865705 -1.476209801874216 0
vt 7.51006389671454 -1.488637154658944 0
vt 7.516302527630568 -2.1789790973029413 0
vt 6.78862861758506 -2.1727903754342415 0
vt 6.813533232201843 -2.415298436402083 0
vt 7.51006389671454 -2.4091097145333835 0
vt 7.472781838360357 -3.9017395929785854 0
vt 7.043613940384956 -3.9079782238946135 0
vt 7.06851855500174 -2.8008957360599434 0
vt 6.83214930685527 -2.7947070141912436 0
vt 6.83214930685527 -3.9141669457633133 0
vt 6.309751308470747 -3.9141669457633133 0
vt 6.3159899393867756 -2.8133729978919995 0
vt 5.905488025112131 -2.8195617197606992 0
vt 5.936581361597614 -3.0932130262613526 0
vt 6.079620691240305 -3.087024304392653 0
vt 6.098286674941061 -3.9328329294640687 0
vt 5.1280547948803825 -3.9265942985480407 0
vt 5.090772736526199 -2.7884683832752155 0
vt 4.543470123524892 -2.7698023995744596 0
vt 4.5621361072256486 -3.1118790099621085 0
vt 4.904162808565968 -3.0745470425605967 0
vt 4.897974086697269 -3.945260282248797 0
vt 3.92155348476789 -3.9204055766793413 0
vt 3.9339808375526175 -2.1727903754342415 0
vt 3.697661498453476 -2.1727903754342415 0
vt 3.716277573106904 -3.9265942985480407 0
vt 0.14019451394498186 -3.9265942985480407 0
vt 0.12776716116025402 -2.3966823617486557 0
vt 1.6950110653611512 -2.3966823617486557 0
vt 1.6639177288756672 -2.197645081003697 0
vt 0.13395588302895384 -2.222499786573153 0
vt 0.12152853024422598 -1.2709837992605582 0
vt 1.191279050677384 -1.2709837992605582 0
vt 1.178801788845328 -1.0719465185155999 0
vt 0.12776716116025402 -1.0719465185155999 0
vt 1.9650618786847165 -1.0428142346241862 0
vt 3.977501526822829 -1.0567501693425172 0
vt 3.9229248486426616 -3.727555466482564 0
vt 3.932169311961442 -2.4275388898944854 0
vt 6.312985346984822 -3.343527318031986 0
vt 6.314957138619037 -2.9956086277580045 0
vt 5.100260071233187 -3.0780924537680576 0
vt 3.9328006021423363 -2.3387627574680026 0
vn 0 0 1
vn 0 0 -1
usemtl floor_1
s off
f 1/1/1 111/56/1 109/55/1
f 110/55/2 112/56/2 2/1/2
f 1/1/1 109/55/1 3/2/1
f 4/2/2 110/55/2 2/1/2
f 113/57/1 3/2/1 109/55/1
f 110/55/2 4/2/2 114/57/2
f 15/8/1 13/7/1 9/5/1
f 10/5/2 14/7/2 16/8/2
f 9/5/1 115/58/1 15/8/1
f 16/8/2 116/58/2 10/5/2
f 33/17/1 31/16/1 39/20/1
f 40/20/2 32/16/2 34/17/2
f 33/17/1 39/20/1 35/18/1
f 36/18/2 40/20/2 34/17/2
f 35/18/1 39/20/1 37/19/1
f 38/19/2 40/20/2 36/18/2
f 85/43/1 83/42/1 81/41/1
f 82/41/2 84/42/2 86/43/2
f 85/43/1 81/41/1 87/44/1
f 88/44/2 82/41/2 86/43/2
f 117/59/1 87/44/1 81/41/1
f 82/41/2 88/44/2 118/59/2
f 119/60/1 117/59/1 81/41/1
f 82/41/2 118/59/2 120/60/2
f 93/47/1 91/46/1 99/50/1
f 100/50/2 92/46/2 94/47/2
f 93/47/1 99/50/1 95/48/1
f 96/48/2 100/50/2 94/47/2
f 95/48/1 99/50/1 97/49/1
f 98/49/2 100/50/2 96/48/2
f 105/53/1 103/52/1 107/54/1
f 108/54/2 104/52/2 106/53/2
f 109/55/1 107/54/1 5/3/1
f 6/3/2 108/54/2 110/55/2
f 109/55/1 5/3/1 113/57/1
f 114/57/2 6/3/2 110/55/2
f 11/6/1 9/5/1 13/7/1
f 14/7/2 10/5/2 12/6/2
f 9/5/1 7/4/1 17/9/1
f 18/9/2 8/4/2 10/5/2
f 9/5/1 17/9/1 115/58/1
f 116/58/2 18/9/2 10/5/2
f 23/12/1 21/11/1 25/13/1
f 26/13/2 22/11/2 24/12/2
f 25/13/1 21/11/1 27/14/1
f 28/14/2 22/11/2 26/13/2
f 27/14/1 21/11/1 29/15/1
f 30/15/2 22/11/2 28/14/2
f 31/16/1 29/15/1 47/24/1
f 48/24/2 30/15/2 32/16/2
f 31/16/1 47/24/1 41/21/1
f 42/21/2 48/24/2 32/16/2
f 31/16/1 41/21/1 39/20/1
f 40/20/2 42/21/2 32/16/2
f 45/23/1 43/22/1 41/21/1
f 42/21/2 44/22/2 46/23/2
f 45/23/1 41/21/1 47/24/1
f 48/24/2 42/21/2 46/23/2
f 51/26/1 49/25/1 57/29/1
f 58/29/2 50/25/2 52/26/2
f 51/26/1 57/29/1 53/27/1
f 54/27/2 58/29/2 52/26/2
f 53/27/1 57/29/1 55/28/1
f 56/28/2 58/29/2 54/27/2
f 121/61/1 59/30/1 123/62/1
f 124/62/2 60/30/2 122/61/2
f 121/61/1 61/31/1 59/30/1
f 60/30/2 62/31/2 122/61/2
f 121/61/1 63/32/1 61/31/1
f 62/31/2 64/32/2 122/61/2
f 73/37/1 71/36/1 69/35/1
f 70/35/2 72/36/2 74/37/2
f 73/37/1 69/35/1 75/38/1
f 76/38/2 70/35/2 74/37/2
f 125/63/1 75/38/1 69/35/1
f 70/35/2 76/38/2 126/63/2
f 77/39/1 125/63/1 69/35/1
f 70/35/2 126/63/2 78/39/2
f 127/64/1 119/60/1 79/40/1
f 80/40/2 120/60/2 128/64/2
f 79/40/1 119/60/1 81/41/1
f 82/41/2 120/60/2 80/40/2
f 89/45/1 127/64/1 79/40/1
f 80/40/2 128/64/2 90/45/2
f 91/46/1 89/45/1 17/9/1
f 18/9/2 90/45/2 92/46/2
f 91/46/1 17/9/1 7/4/1
f 8/4/2 18/9/2 92/46/2
f 91/46/1 7/4/1 101/51/1
f 102/51/2 8/4/2 92/46/2
f 91/46/1 101/51/1 99/50/1
f 100/50/2 102/51/2 92/46/2
f 101/51/1 7/4/1 5/3/1
f 6/3/2 8/4/2 102/51/2
f 101/51/1 5/3/1 107/54/1
f 108/54/2 6/3/2 102/51/2
f 101/51/1 107/54/1 103/52/1
f 104/52/2 108/54/2 102/51/2
f 17/9/1 89/45/1 19/10/1
f 20/10/2 90/45/2 18/9/2
f 19/10/1 89/45/1 79/40/1
f 80/40/2 90/45/2 20/10/2
f 19/10/1 79/40/1 77/39/1
f 78/39/2 80/40/2 20/10/2
f 19/10/1 77/39/1 67/34/1
f 68/34/2 78/39/2 20/10/2
f 19/10/1 67/34/1 29/15/1
f 30/15/2 68/34/2 20/10/2
f 19/10/1 29/15/1 21/11/1
f 22/11/2 30/15/2 20/10/2
f 29/15/1 67/34/1 47/24/1
f 48/24/2 68/34/2 30/15/2
f 47/24/1 67/34/1 65/33/1
f 66/33/2 68/34/2 48/24/2
f 47/24/1 65/33/1 49/25/1
f 50/25/2 66/33/2 48/24/2
f 49/25/1 65/33/1 59/30/1
f 60/30/2 66/33/2 50/25/2
f 49/25/1 59/30/1 57/29/1
f 58/29/2 60/30/2 50/25/2
f 123/62/1 59/30/1 65/33/1
f 66/33/2 60/30/2 124/62/2
f 69/35/1 67/34/1 77/39/1
f 78/39/2 68/34/2 70/35/2
